<svg id="picto" xmlns="http://www.w3.org/2000/svg" width="16" height="16" viewBox="0 0 16 16"><defs><style>.cls-1{fill:#fff;opacity:0;}</style></defs><rect id="rectangle" class="cls-1" width="16" height="16"/><path id="arrow" d="M13,10.1H10.23a.31.31,0,0,1-.32-.28h0V.94A.3.3,0,0,0,9.59.65H6.37A.32.32,0,0,0,6,.94H6V9.81a.29.29,0,0,1-.31.29H3a.3.3,0,0,0-.31.29.27.27,0,0,0,.08.22l5.06,4.58a.36.36,0,0,0,.46,0l5-4.58a.29.29,0,0,0,0-.42C13.22,10.1,13.12,10.1,13,10.1Z" transform="translate(0 0)"/></svg>