<svg id="picto" xmlns="http://www.w3.org/2000/svg" width="16" height="16" viewBox="0 0 16 16"><defs><style>.cls-1{fill:#fff;opacity:0;}.cls-2{fill:#15282e;}</style></defs><rect id="Rectangle" class="cls-1" width="16" height="16"/><path id="arrow-up-right-from-square" class="cls-2" d="M14.33,3V13A1.34,1.34,0,0,1,13,14.33H3A1.34,1.34,0,0,1,1.67,13h0V3A1.34,1.34,0,0,1,3,1.67H13A1.34,1.34,0,0,1,14.33,3Zm-2.48.46H8.68A.67.67,0,0,0,8,4.16a.63.63,0,0,0,.2.47l.91.91L3.58,11.07a.33.33,0,0,0,0,.48l.87.87a.33.33,0,0,0,.48,0L10.46,6.9l.91.9a.69.69,0,0,0,1,0,.71.71,0,0,0,.19-.48V4.15a.67.67,0,0,0-.67-.67Z"/></svg>