<?xml version="1.0" encoding="utf-8"?>
<!-- Generator: Adobe Illustrator 25.4.1, SVG Export Plug-In . SVG Version: 6.00 Build 0)  -->
<svg version="1.1" id="arrows-rotate_00000051357892107342634640000007784851617112321961_"
	 xmlns="http://www.w3.org/2000/svg" xmlns:xlink="http://www.w3.org/1999/xlink" x="0px" y="0px" viewBox="0 0 16 16"
	 style="enable-background:new 0 0 16 16;" xml:space="preserve">
<path id="arrows-rotate" d="M2.3,7h3.4c0.3,0,0.6-0.3,0.6-0.6c0-0.1-0.1-0.3-0.2-0.4L5.1,4.9c1.7-1.6,4.4-1.5,6,0.2c0,0,0,0,0,0
	c0.5,0.5,0.8,1.2,1,1.9h2.1C13.7,3.5,10.4,1.2,7,1.8C5.7,2,4.6,2.6,3.6,3.4L2.7,2.5c-0.2-0.2-0.6-0.2-0.8,0c0,0,0,0,0,0l0,0
	C1.8,2.6,1.7,2.8,1.7,2.9v3.4C1.7,6.7,1.9,7,2.3,7z M13.7,9h-3.4C9.9,9,9.7,9.3,9.7,9.6c0,0.2,0.1,0.3,0.2,0.4l1.1,1.1
	c-1.7,1.6-4.4,1.5-6-0.2C4.4,10.4,4,9.7,3.8,9H1.7c0.6,3.5,3.9,5.8,7.3,5.2c1.3-0.2,2.4-0.8,3.3-1.7l0.9,0.9c0.2,0.2,0.6,0.2,0.8,0
	c0,0,0,0,0,0l0,0c0.1-0.1,0.2-0.3,0.2-0.4V9.6C14.3,9.3,14.1,9,13.7,9z"/>
</svg>
