<svg id="picto" xmlns="http://www.w3.org/2000/svg" width="16" height="16" viewBox="0 0 16 16"><defs><style>.cls-1{fill:#fff;opacity:0;}.cls-2{fill:#15282e;}</style></defs><rect id="Rectangle" class="cls-1" width="16" height="16"/><path id="calculator" class="cls-2" d="M12.83.67H3.17a.5.5,0,0,0-.5.5h0V14.83a.5.5,0,0,0,.5.5h9.66a.5.5,0,0,0,.5-.5V1.17A.5.5,0,0,0,12.83.67ZM5.58,13.39a.29.29,0,0,1-.28.3H4.1a.29.29,0,0,1-.3-.28v-1.2a.29.29,0,0,1,.28-.3h1.2a.29.29,0,0,1,.3.28v1.2Zm0-3.28a.29.29,0,0,1-.3.3H4.1a.29.29,0,0,1-.3-.3h0V8.93a.29.29,0,0,1,.28-.3h1.2a.29.29,0,0,1,.3.28v1.2Zm3.29,3.28a.29.29,0,0,1-.3.3H7.38a.29.29,0,0,1-.3-.3h0V12.21a.29.29,0,0,1,.3-.3H8.57a.29.29,0,0,1,.3.3h0Zm0-3.28a.32.32,0,0,1-.3.3H7.38a.32.32,0,0,1-.3-.3V8.93a.29.29,0,0,1,.3-.3H8.57a.29.29,0,0,1,.3.3h0Zm3.33,3.28a.29.29,0,0,1-.28.3H10.67a.29.29,0,0,1-.3-.28V8.93a.29.29,0,0,1,.28-.3H11.9a.29.29,0,0,1,.3.28v4.48Zm0-7.15a.29.29,0,0,1-.3.3H4.1a.29.29,0,0,1-.3-.3h0V2.61a.29.29,0,0,1,.28-.3H11.9a.29.29,0,0,1,.3.28V6.24Z"/></svg>