<?xml version="1.0" encoding="utf-8"?>
<!-- Generator: Adobe Illustrator 25.4.1, SVG Export Plug-In . SVG Version: 6.00 Build 0)  -->
<svg version="1.1" id="Calque_1" xmlns="http://www.w3.org/2000/svg" xmlns:xlink="http://www.w3.org/1999/xlink" x="0px" y="0px"
	 viewBox="0 0 16 16" style="enable-background:new 0 0 16 16;" xml:space="preserve">
<style type="text/css">
	.st0{fill:#15282E;}
</style>
<path id="Tracé_521" class="st0" d="M15.3,4.2L14.2,3c-0.1-0.1-0.3-0.1-0.4,0L6,10.4l-3.8-4C2.2,6.3,2.1,6.3,2,6.4L0.7,7.6
	c-0.1,0.1-0.1,0.2,0,0.3l5.1,5.4c0.1,0.1,0.2,0.1,0.3,0c0,0,0,0,0,0L7.4,12l0,0l7.9-7.4C15.4,4.5,15.4,4.3,15.3,4.2
	C15.3,4.2,15.3,4.2,15.3,4.2z"/>
</svg>
