<svg id="picto" xmlns="http://www.w3.org/2000/svg" width="16" height="16" viewBox="0 0 16 16"><defs><style>.cls-1{fill:#fff;opacity:0;}.cls-2{fill:#15282e;}</style></defs><rect id="Rectangle" class="cls-1" width="16" height="16"/><path id="check-circle" class="cls-2" d="M15.33,8A7.33,7.33,0,1,1,8,.67H8A7.33,7.33,0,0,1,15.33,8ZM7.15,11.88l5.44-5.44a.46.46,0,0,0,0-.65l0,0h0l-.67-.67a.48.48,0,0,0-.67,0h0L6.82,9.54,4.75,7.47a.46.46,0,0,0-.65,0l0,0h0l-.67.67a.46.46,0,0,0,0,.65l0,0h0l3.07,3.07a.46.46,0,0,0,.65,0Z"/></svg>