<svg id="picto" xmlns="http://www.w3.org/2000/svg" width="16" height="16" viewBox="0 0 16 16"><defs><style>.cls-1{fill:#fff;opacity:0;}.cls-2{fill:#15282e;}</style></defs><rect id="Rectangle" class="cls-1" width="16" height="16"/><path id="close-circle" class="cls-2" d="M8.06.67H8A7.33,7.33,0,0,0,.68,8v.1a7.42,7.42,0,0,0,7.23,7.23A7.33,7.33,0,1,0,8.06.67Zm3.6,9.57a.28.28,0,0,1,0,.4h0l-.19.2h0l-.61.61h0l-.2.19a.27.27,0,0,1-.39,0h0L8,9.41,5.77,11.65a.27.27,0,0,1-.39,0h0l-.2-.2h0l-.6-.6h0l-.19-.2a.28.28,0,0,1,0-.4h0L6.6,8,4.36,5.76a.28.28,0,0,1,0-.4h0l1-1a.28.28,0,0,1,.4,0h0L8,6.59l2.24-2.24a.28.28,0,0,1,.4,0h0l.2.2.6.6h0l.2.2a.28.28,0,0,1,0,.4h0L9.42,8Z"/></svg>