<svg id="picto" xmlns="http://www.w3.org/2000/svg" width="16" height="16" viewBox="0 0 16 16"><defs><style>.cls-1{fill:#fff;opacity:0;}.cls-2{fill:#15282e;}</style></defs><rect id="Rectangle" class="cls-1" width="16" height="16"/><path id="cross" class="cls-2" d="M14.26,12.74,9.52,8l4.7-4.7a.29.29,0,0,0,0-.41h0l-1.1-1.1a.29.29,0,0,0-.41,0h0L8,6.48,3.26,1.74a.24.24,0,0,0-.34,0h0L1.74,2.91a.24.24,0,0,0,0,.34h0L6.48,8l-4.7,4.7a.29.29,0,0,0,0,.41h0l1.1,1.1a.29.29,0,0,0,.41,0h0L8,9.52l4.74,4.74a.24.24,0,0,0,.34,0h0l1.17-1.17a.24.24,0,0,0,0-.34Z"/></svg>