<svg id="picto" xmlns="http://www.w3.org/2000/svg" width="16" height="16" viewBox="0 0 16 16"><defs><style>.cls-1{fill:#fff;opacity:0;}.cls-2{fill:#15282e;}</style></defs><rect id="Rectangle" class="cls-1" width="16" height="16"/><path id="download" class="cls-2" d="M6.44,2V6.09a.31.31,0,0,1-.31.31H4a.31.31,0,0,0-.31.29.33.33,0,0,0,.1.23l4,4a.29.29,0,0,0,.41,0h0l4-4a.3.3,0,0,0,0-.42A.29.29,0,0,0,12,6.4H9.91a.31.31,0,0,1-.31-.31h0V2a.29.29,0,0,0-.28-.3H6.74a.29.29,0,0,0-.3.28ZM1.69,13v1a.29.29,0,0,0,.29.29H14a.29.29,0,0,0,.29-.29V13a.29.29,0,0,0-.28-.3H2a.29.29,0,0,0-.33.25Z"/></svg>