<svg id="picto" xmlns="http://www.w3.org/2000/svg" width="16" height="16" viewBox="0 0 16 16"><defs><style>.cls-1{fill:#fff;opacity:0;}.cls-2{fill:#15282e;}</style></defs><rect id="Rectangle" class="cls-1" width="16" height="16"/><path id="exclamation-circle" class="cls-2" d="M8,15.33A7.33,7.33,0,1,0,.67,8,7.33,7.33,0,0,0,8,15.33ZM7,4a.29.29,0,0,1,.3-.3H8.65A.29.29,0,0,1,9,4H9V8.68a.29.29,0,0,1-.28.3H7.35a.29.29,0,0,1-.3-.28v0Zm0,6.78a.29.29,0,0,1,.3-.3H8.65a.29.29,0,0,1,.3.3H9V12a.29.29,0,0,1-.28.3H7.35a.29.29,0,0,1-.3-.28v0Z"/></svg>