<svg id="picto" xmlns="http://www.w3.org/2000/svg" width="16" height="16" viewBox="0 0 16 16"><defs><style>.cls-1{fill:#fff;opacity:0;}.cls-2{fill:#15282e;}</style></defs><rect id="Rectangle" class="cls-1" width="16" height="16"/><path id="exclamation-triangle" class="cls-2" d="M14.28,13.87l-6-12a.32.32,0,0,0-.41-.15.36.36,0,0,0-.15.15l-6,12a.31.31,0,0,0,.14.42h0a.33.33,0,0,0,.14,0H14a.3.3,0,0,0,.33-.28h0A.31.31,0,0,0,14.28,13.87ZM7,6a.29.29,0,0,1,.28-.28H8.72A.28.28,0,0,1,9,6v4a.28.28,0,0,1-.28.29H7.28A.29.29,0,0,1,7,10H7Zm2,7a.31.31,0,0,1-.3.32H7.32A.32.32,0,0,1,7,13V11.62a.31.31,0,0,1,.31-.31h1.4a.31.31,0,0,1,.31.31H9Z"/></svg>