<?xml version="1.0" encoding="utf-8"?>
<!-- Generator: Adobe Illustrator 25.4.1, SVG Export Plug-In . SVG Version: 6.00 Build 0)  -->
<svg version="1.1" id="file-upload_00000077282746113442876300000017348216766228000184_"
	 xmlns="http://www.w3.org/2000/svg" xmlns:xlink="http://www.w3.org/1999/xlink" x="0px" y="0px" viewBox="0 0 16 16"
	 style="enable-background:new 0 0 16 16;" xml:space="preserve">
<g id="file-upload">
	<g id="Calque_9">
		<path id="Tracé_9" d="M13.1,3.7l-2.7-2.8c-0.1-0.1-0.3-0.2-0.5-0.2H9.8v3.7h3.5V4.2C13.3,4,13.2,3.8,13.1,3.7z"/>
	</g>
	<path d="M13.3,14.6V5.3H9.6c-0.4,0-0.7-0.3-0.7-0.7c0,0,0,0,0,0l0,0V0.7H3.3C3,0.7,2.7,1,2.7,1.3v13.3c0,0.4,0.3,0.7,0.7,0.7
		c0,0,0,0,0,0h9.3C13,15.3,13.3,15,13.3,14.6L13.3,14.6z M10.3,10H8.9c-0.1,0-0.2,0.1-0.2,0.2c0,0,0,0,0,0v2.6l0,0
		c0,0.1-0.1,0.2-0.2,0.2H6.9c-0.1,0-0.2-0.1-0.2-0.2c0,0,0,0,0,0v-2.6c0-0.1-0.1-0.2-0.2-0.2c0,0,0,0,0,0H5.2c0,0-0.1,0-0.1,0
		C5,9.9,5,9.8,5,9.7c0,0,0,0,0,0l2.5-2.6l0,0c0.1-0.1,0.2-0.1,0.3,0l2.5,2.5c0,0,0.1,0.1,0.1,0.1C10.5,9.9,10.4,10,10.3,10L10.3,10z
		"/>
</g>
</svg>
