<?xml version="1.0" encoding="utf-8"?>
<!-- Generator: Adobe Illustrator 25.4.1, SVG Export Plug-In . SVG Version: 6.00 Build 0)  -->
<svg version="1.1" id="file-cog_00000173876077170775972390000008043297570899743903_"
	 xmlns="http://www.w3.org/2000/svg" xmlns:xlink="http://www.w3.org/1999/xlink" x="0px" y="0px" viewBox="0 0 16 16"
	 style="enable-background:new 0 0 16 16;" xml:space="preserve">
<path id="file-cog" d="M9,10.1C9,10.6,8.5,11,8,11l0,0c-0.6,0-1-0.4-1-1c0-0.6,0.4-1,1-1C8.6,9,9,9.4,9,10.1C9,10,9,10,9,10.1z
	 M13.2,3.7l-2.8-2.8c-0.1-0.1-0.3-0.2-0.5-0.2H9.8v3.7h3.5V4.2C13.3,4,13.2,3.8,13.2,3.7L13.2,3.7z M9.6,5.3h3.8v9.4
	c0,0.4-0.3,0.6-0.7,0.7H3.3c-0.4,0-0.7-0.3-0.7-0.7c0,0,0,0,0,0V1.3C2.7,1,3,0.7,3.3,0.7h5.5v3.9l0,0C8.9,4.9,9.2,5.2,9.6,5.3
	C9.5,5.2,9.5,5.2,9.6,5.3z M10,8L9.5,8.3C9.3,8.1,9,8,8.8,7.9V7.3c0-0.1,0-0.1-0.1-0.1c-0.4-0.1-0.9-0.1-1.3,0
	c-0.1,0-0.1,0.1-0.1,0.1v0.6C7,8,6.7,8.1,6.5,8.3L6,8C5.9,8,5.9,8,5.8,8C5.5,8.3,5.3,8.7,5.2,9.1c0,0.1,0,0.1,0.1,0.2l0.5,0.3
	c-0.1,0.3-0.1,0.6,0,0.8l-0.5,0.3c-0.1,0-0.1,0.1-0.1,0.2c0.1,0.4,0.4,0.8,0.7,1.1c0.1,0,0.1,0,0.2,0l0.5-0.3
	C6.7,11.9,7,12,7.2,12.1v0.6c0,0.1,0,0.1,0.1,0.1c0.4,0.1,0.9,0.1,1.3,0c0.1,0,0.1-0.1,0.1-0.1v-0.5C9,12.1,9.3,12,9.5,11.8l0.5,0.3
	c0.1,0,0.1,0,0.2,0c0.3-0.3,0.5-0.7,0.6-1.1c0-0.1,0-0.1-0.1-0.2l0,0l-0.5-0.3c0-0.3,0-0.6,0-0.8l0.5-0.3c0.1,0,0.1-0.1,0.1-0.2
	c-0.1-0.4-0.4-0.8-0.6-1.1C10.1,8,10.1,8,10,8z"/>
</svg>
