<?xml version="1.0" encoding="utf-8"?>
<!-- Generator: Adobe Illustrator 25.4.1, SVG Export Plug-In . SVG Version: 6.00 Build 0)  -->
<svg version="1.1" id="file-text_00000042720899136121604010000017774459713827896968_"
	 xmlns="http://www.w3.org/2000/svg" xmlns:xlink="http://www.w3.org/1999/xlink" x="0px" y="0px" viewBox="0 0 16 16"
	 style="enable-background:new 0 0 16 16;" xml:space="preserve">
<g id="file-text">
	<path id="Icon_awesome-file-alt" d="M8.9,4.6V0.7H3.3C3,0.7,2.7,1,2.7,1.3c0,0,0,0,0,0l0,0v13.3c0,0.4,0.3,0.7,0.7,0.7c0,0,0,0,0,0
		h9.3c0.4,0,0.7-0.3,0.7-0.7c0,0,0,0,0,0l0,0V5.3H9.6C9.2,5.2,8.9,4.9,8.9,4.6C8.9,4.6,8.9,4.6,8.9,4.6z M10.7,11.3
		c0,0.2-0.2,0.3-0.3,0.4H5.7c-0.2,0-0.3-0.2-0.3-0.4v-0.2c0-0.2,0.2-0.3,0.3-0.3c0,0,0,0,0,0h4.6c0.2,0,0.3,0.2,0.3,0.3l0,0V11.3z
		 M10.7,9.5c0,0.2-0.2,0.3-0.3,0.3l0,0H5.7c-0.2,0-0.3-0.2-0.3-0.3l0,0V9.3c0-0.2,0.2-0.3,0.3-0.3c0,0,0,0,0,0h4.6
		c0.2,0,0.3,0.2,0.3,0.3l0,0V9.5z M10.7,7.4v0.2c0,0.2-0.2,0.3-0.3,0.3l0,0H5.7C5.5,8,5.3,7.8,5.3,7.7c0,0,0,0,0,0V7.4
		c0-0.2,0.2-0.3,0.3-0.3h4.6C10.5,7.1,10.7,7.2,10.7,7.4z M13.3,4.2v0.2H9.8V0.7h0.2c0.2,0,0.3,0.1,0.5,0.2l2.7,2.8
		C13.2,3.8,13.3,4,13.3,4.2z"/>
</g>
</svg>
