<svg id="picto" xmlns="http://www.w3.org/2000/svg" width="16" height="16" viewBox="0 0 16 16"><defs><style>.cls-1{fill:#fff;opacity:0;}.cls-2{fill:#15282e;}</style></defs><rect id="Rectangle" class="cls-1" width="16" height="16"/><path id="save" class="cls-2" d="M13.94,4.44,11.56,2.06a1.39,1.39,0,0,0-1-.39H3A1.35,1.35,0,0,0,1.67,3h0V13A1.35,1.35,0,0,0,3,14.33H13A1.35,1.35,0,0,0,14.33,13h0V5.4a1.39,1.39,0,0,0-.39-1ZM8,12.52a1.81,1.81,0,1,1,1.81-1.81h0A1.81,1.81,0,0,1,8,12.52Zm2.71-8.6V6.76a.34.34,0,0,1-.34.34H3.82a.34.34,0,0,1-.34-.34h0V3.82a.34.34,0,0,1,.34-.34h6.46a.35.35,0,0,1,.24.1l.1.1a.35.35,0,0,1,.1.24Z"/></svg>