<svg xmlns="http://www.w3.org/2000/svg" width="16" height="16" viewBox="0 0 16 16"><defs><style>.cls-1{opacity:0;}.cls-2{fill:#fff;}</style></defs><g id="Calque_10" data-name="Calque 10" class="cls-1"><rect class="cls-2" width="16" height="16"/></g><g id="Calque_11" data-name="Calque 11"><path id="Icon_awesome-history" data-name="Icon awesome-history" d="M8,1.67A6.37,6.37,0,0,0,3.6,3.42l-.91-.91a.6.6,0,0,0-.85,0h0a.58.58,0,0,0-.18.43V6.37A.61.61,0,0,0,2.24,7H5.68a.62.62,0,0,0,.62-.62A.69.69,0,0,0,6.12,6L5.05,4.87a4.29,4.29,0,1,1,.1,6.36.3.3,0,0,0-.41,0l-1,1a.3.3,0,0,0,0,.42h0A6.33,6.33,0,1,0,8,1.67Z"/></g><g id="Calque_12" data-name="Calque 12"><g id="Calque_9" data-name="Calque 9"><g id="Calque_9-2" data-name="Calque 9-2"><path d="M9.85,9.3l-.36.36a.3.3,0,0,1-.43,0L7.45,8V5.15a.3.3,0,0,1,.3-.3h.5a.3.3,0,0,1,.3.3V7.58l1.3,1.3A.31.31,0,0,1,9.85,9.3Z"/></g></g></g></svg>