<svg id="picto" xmlns="http://www.w3.org/2000/svg" width="16" height="16" viewBox="0 0 16 16"><defs><style>.cls-1{fill:#fff;opacity:0;}.cls-2{fill:#15282e;}</style></defs><rect id="Rectangle" class="cls-1" width="16" height="16"/><path id="info-circle" class="cls-2" d="M8,.67A7.33,7.33,0,1,0,15.33,8,7.33,7.33,0,0,0,8,.67ZM9,12a.29.29,0,0,1-.3.3H7.35a.29.29,0,0,1-.3-.3h0V7.32A.29.29,0,0,1,7.33,7H8.65A.29.29,0,0,1,9,7.3v0ZM9,5.26a.29.29,0,0,1-.3.3H7.35a.29.29,0,0,1-.3-.3h0V4a.29.29,0,0,1,.28-.3H8.65a.29.29,0,0,1,.3.28V4Z"/></svg>