<?xml version="1.0" encoding="UTF-8"?><svg id="a" xmlns="http://www.w3.org/2000/svg" width="16" height="16" viewBox="0 0 16 16"><defs><style>.d{fill:#fff;opacity:0;}.e{fill:#15282e;}</style></defs><rect id="b" class="d" width="16" height="16"/><path id="c" class="e" d="M10.97,7.78h0L6.97,3.78c-.12-.12-.31-.12-.42,0h0c-.07,.06-.12,.15-.13,.24v2.07c0,.17-.13,.3-.3,.32H1.97c-.16,0-.29,.12-.3,.28h0v2.58c0,.16,.12,.29,.28,.3H6.11c.17,0,.3,.14,.3,.31v2.14c0,.16,.12,.29,.28,.3h0c.11,.01,.21-.03,.28-.11l4-4c.11-.12,.11-.3,0-.42Zm3.37,5.26h0v1c0,.16-.13,.28-.28,.28h-4.77c-.16,0-.28-.13-.28-.28v-1c0-.16,.13-.28,.28-.28h3.43V3.3h-3.42c-.16,0-.29-.13-.29-.29V1.97c0-.16,.13-.29,.29-.29h4.76c.16,0,.29,.13,.29,.29v.68h0V13.04Z"/></svg>