<svg xmlns="http://www.w3.org/2000/svg" width="16" height="16" viewBox="0 0 16 16"><defs><style>.cls-1{opacity:0;}.cls-2{fill:#fff;}</style></defs><g id="Calque_10" data-name="Calque 10" class="cls-1"><rect class="cls-2" width="16" height="16"/></g><g id="Calque_11" data-name="Calque 11"><path d="M14.25,7.77h0l-4-4a.31.31,0,0,0-.43,0A.34.34,0,0,0,9.7,4V6.07a.32.32,0,0,1-.3.32H5.23a.3.3,0,0,0-.3.3V9.25a.3.3,0,0,0,.3.3H9.4a.31.31,0,0,1,.3.31V12a.3.3,0,0,0,.3.3.33.33,0,0,0,.23-.09l4-4A.29.29,0,0,0,14.25,7.77Z"/><path d="M6.71,12.72H3.27V3.26H6.69A.31.31,0,0,0,7,3V2a.3.3,0,0,0-.31-.3H2A.29.29,0,0,0,1.67,2h0V3h0V14a.27.27,0,0,0,.1.24h0a.32.32,0,0,0,.14.08H6.71A.3.3,0,0,0,7,14V13A.3.3,0,0,0,6.71,12.72Z"/></g></svg>