<svg id="picto" xmlns="http://www.w3.org/2000/svg" width="16" height="16" viewBox="0 0 16 16"><defs><style>.cls-1{fill:none;}.cls-2{fill:#15282e;}</style></defs><rect id="Rectangle_33" data-name="Rectangle 33" class="cls-1" width="16" height="16"/><path id="magnifying-glass" class="cls-2" d="M11.24,9.52A5.17,5.17,0,0,0,9.51,2.41l-.17-.09A5.18,5.18,0,0,0,4,11.18a5.16,5.16,0,0,0,5.54.11L12.3,14a1,1,0,0,0,1.41,0l.33-.33a1,1,0,0,0,0-1.41Zm-4.4.5A3.19,3.19,0,1,1,10,6.8v.06A3.19,3.19,0,0,1,6.84,10Z" transform="translate(0)"/></svg>