<svg id="picto" xmlns="http://www.w3.org/2000/svg" width="16" height="16" viewBox="0 0 16 16"><defs><style>.cls-1{fill:none;}.cls-2{fill:#15282e;}</style></defs><rect id="Rectangle" class="cls-1" width="16" height="16"/><path id="paper-plane" class="cls-2" d="M14,1.69,1.84,7a.28.28,0,0,0-.15.36.29.29,0,0,0,.16.15L5.12,9.33a.57.57,0,0,0,.61-.06L12.18,3.7c.05,0,.15-.1.19-.06s0,.14-.06.18L6.72,10.11a.52.52,0,0,0,0,.63l2.09,3.44a.28.28,0,0,0,.37.12.3.3,0,0,0,.13-.12l5-12.11a.3.3,0,0,0-.14-.37A.28.28,0,0,0,14,1.69Z"/></svg>