<svg id="picto" xmlns="http://www.w3.org/2000/svg" width="16" height="16" viewBox="0 0 16 16"><defs><style>.cls-1{fill:none;}.cls-2{fill:#15282e;}</style></defs><rect id="Rectangle" class="cls-1" width="16" height="16"/><path id="Dépublier" class="cls-2" d="M2.67,1.69,14.26,13.28l-1,1-2.79-2.8-1.1,2.67a.3.3,0,0,1-.13.12.28.28,0,0,1-.37-.12L6.75,10.74a.52.52,0,0,1,0-.63L7.82,8.9l-.76-.76L5.76,9.27a.57.57,0,0,1-.61.06L1.88,7.51a.29.29,0,0,1-.16-.15A.28.28,0,0,1,1.87,7L4.68,5.76l-3-3Zm11.53,0a.28.28,0,0,0-.22,0L7.53,4.51,9.26,6.24l3-2.54s.15-.1.19-.06,0,.14-.06.18L9.75,6.73l1.88,1.88,2.71-6.54A.3.3,0,0,0,14.2,1.7Z"/></svg>