<?xml version="1.0" encoding="UTF-8"?><svg id="a" xmlns="http://www.w3.org/2000/svg" width="16" height="16" viewBox="0 0 16 16"><defs><style>.d{fill:#fff;opacity:0;}.e{fill:#15282e;}</style></defs><rect id="b" class="d" width="16" height="16"/><path id="c" class="e" d="M3.63,8.65c-.24,.07-.43,.26-.5,.5l-1.46,4.37,.11,.12,2.3-2.3c0-.06,0-.13,0-.19,0-.44,.35-.8,.79-.81,.44,0,.8,.35,.81,.79,0,.44-.35,.8-.79,.81,0,0-.01,0-.02,0h-.19l-2.3,2.3,.12,.11,4.37-1.46c.24-.07,.43-.26,.5-.5l.82-2.08-2.49-2.48-2.07,.82ZM10.8,2.35L6.27,7.28l2.42,2.42,4.94-4.52c2.1-1.86-.99-4.92-2.83-2.83Z"/></svg>