<?xml version="1.0" encoding="utf-8"?>
<!-- Generator: Adobe Illustrator 25.4.1, SVG Export Plug-In . SVG Version: 6.00 Build 0)  -->
<svg version="1.1" id="Calque_1" xmlns="http://www.w3.org/2000/svg" xmlns:xlink="http://www.w3.org/1999/xlink" x="0px" y="0px"
	 viewBox="0 0 16 16" style="enable-background:new 0 0 16 16;" xml:space="preserve">
<path id="Icon_awesome-plus-circle" d="M8,0.7C4,0.7,0.7,4,0.7,8S4,15.3,8,15.3S15.3,12,15.3,8l0,0C15.3,4,12,0.7,8,0.7
	C8,0.7,8,0.7,8,0.7z M12.3,8.8c0,0.2-0.2,0.4-0.4,0.4H9.2v2.7c0,0.2-0.2,0.4-0.4,0.4H7.2c-0.2,0-0.4-0.2-0.3-0.4V9.2H4.1
	C3.9,9.2,3.7,9,3.7,8.8V7.2c0-0.2,0.2-0.4,0.4-0.3h2.7V4.1c0-0.2,0.2-0.4,0.3-0.4h1.7c0.2,0,0.4,0.2,0.4,0.4v2.7h2.7
	c0.2,0,0.4,0.2,0.4,0.3L12.3,8.8z"/>
</svg>
