<?xml version="1.0" encoding="utf-8"?>
<!-- Generator: Adobe Illustrator 26.1.0, SVG Export Plug-In . SVG Version: 6.00 Build 0)  -->
<svg version="1.1" id="trash_00000129894241588460555690000017316977369539018389_"
	 xmlns="http://www.w3.org/2000/svg" xmlns:xlink="http://www.w3.org/1999/xlink" x="0px" y="0px" viewBox="0 0 16 16"
	 style="enable-background:new 0 0 16 16;" xml:space="preserve">
<style type="text/css">
	.st0{fill-rule:evenodd;clip-rule:evenodd;}
</style>
<g id="trash" transform="translate(-1492.375 -953.891)">
	<g id="icon" transform="translate(1492.375 953.891)">
		<path id="iconmonstr-trash-can-27_00000178189003144902494010000009562924472779099303_" class="st0" d="M11.5,14.8h-7
			c-0.6,0-1.1-0.5-1.1-1.1V4.4h9.3v9.2C12.6,14.2,12.1,14.8,11.5,14.8 M6.9,6.8c0-0.3-0.3-0.6-0.6-0.6S5.8,6.5,5.8,6.8v5.2
			c0,0.3,0.3,0.6,0.6,0.6s0.6-0.3,0.6-0.6V6.8z M10.3,6.8c0-0.3-0.3-0.6-0.6-0.6S9.2,6.5,9.2,6.8v5.2c0,0.3,0.3,0.6,0.6,0.6
			s0.6-0.3,0.6-0.6V6.8z"/>
		<path id="Icon_awesome-trash-alt_00000051368404634557314300000014689707450384768404_" d="M13,2h-2.9L9.9,1.6
			C9.8,1.4,9.6,1.2,9.4,1.2H6.6c-0.2,0-0.4,0.1-0.5,0.3L5.8,2H2.9C2.7,2,2.5,2.2,2.5,2.4c0,0,0,0,0,0v0.8c0,0.2,0.2,0.4,0.4,0.4H13
			c0.2,0,0.4-0.2,0.4-0.4V2.4C13.4,2.2,13.2,2,13,2z"/>
	</g>
</g>
</svg>
