<svg id="picto" xmlns="http://www.w3.org/2000/svg" width="16" height="16" viewBox="0 0 16 16"><defs><style>.cls-1{fill:#fff;opacity:0;}.cls-2{fill:#15282e;}</style></defs><rect id="Rectangle" class="cls-1" width="16" height="16"/><path id="user-plus" class="cls-2" d="M14,3.33H12.65V2a.36.36,0,0,0-.35-.33h-.65A.36.36,0,0,0,11.3,2V3.33H10a.34.34,0,0,0-.33.34v.66a.34.34,0,0,0,.33.34H11.3V6a.37.37,0,0,0,.35.33h.65A.37.37,0,0,0,12.65,6V4.67H14a.34.34,0,0,0,.32-.34V3.67A.34.34,0,0,0,14,3.33ZM9.28,9.77h-.2a5.19,5.19,0,0,1-3.91,0H5A3,3,0,0,0,1.7,12.46h0v.72A1.27,1.27,0,0,0,3,14.33h8.25a1.26,1.26,0,0,0,1.36-1.14v-.68A3,3,0,0,0,9.37,9.76H9.28ZM7.13,3.7A2.64,2.64,0,1,1,4.5,6.34h0A2.64,2.64,0,0,1,7.13,3.7Z"/></svg>