<svg id="picto" xmlns="http://www.w3.org/2000/svg" width="16" height="16" viewBox="0 0 16 16"><defs><style>.cls-1{fill:#fff;opacity:0;}.cls-2{fill:#15282e;}</style></defs><rect id="Rectangle" class="cls-1" width="16" height="16"/><path id="Calque_11" data-name="Calque 11" class="cls-2" d="M12,8.76h-.2a5.24,5.24,0,0,1-3.93,0H7.61a3.05,3.05,0,0,0-3.3,2.75v.69a1.28,1.28,0,0,0,1.38,1.14H14a1.27,1.27,0,0,0,1.37-1.14v-.69A3.07,3.07,0,0,0,12,8.75Zm-6.4-.32A2,2,0,0,0,4.31,8H2.48A1.69,1.69,0,0,0,.65,9.53v.76a.85.85,0,0,0,.91.76H3.45A3.58,3.58,0,0,1,5.61,8.44ZM9.81,2.66A2.65,2.65,0,1,1,7.16,5.31h0A2.65,2.65,0,0,1,9.81,2.66ZM3.31,4.18A1.51,1.51,0,1,1,1.8,5.69,1.51,1.51,0,0,1,3.31,4.18Z"/></svg>