<svg xmlns="http://www.w3.org/2000/svg">
  <symbol id="user-cadenas" viewBox="0 -11 512 512">
    <path fill="currentColor" d="m474.667969 341.332031h-5.335938v-32c0-29.394531-23.933593-53.332031-53.332031-53.332031s-53.332031 23.9375-53.332031 53.332031v32h-5.335938c-20.585937 0-37.332031 16.746094-37.332031 37.335938v74.664062c0 20.589844 16.746094 37.335938 37.332031 37.335938h117.335938c20.585937 0 37.332031-16.746094 37.332031-37.335938v-74.664062c0-20.589844-16.746094-37.335938-37.332031-37.335938zm-80-32c0-11.753906 9.578125-21.332031 21.332031-21.332031s21.332031 9.578125 21.332031 21.332031v32h-42.664062zm0 0"/>
    <path fill="currentColor" d="m288 378.667969c0-28.800781 17.644531-53.527344 42.667969-64v-5.335938c0-12.96875 3.132812-25.128906 8.339843-36.160156-16.128906-10.816406-35.5-17.171875-56.339843-17.171875h-181.335938c-55.871093 0-101.332031 45.460938-101.332031 101.332031v74.667969c0 8.832031 7.167969 16 16 16h272zm0 0"/>
    <path fill="currentColor" d="m298.667969 106.667969c0 58.910156-47.757813 106.664062-106.667969 106.664062s-106.667969-47.753906-106.667969-106.664062c0-58.910157 47.757813-106.667969 106.667969-106.667969s106.667969 47.757812 106.667969 106.667969zm0 0"/>
  </symbol>
  <symbol id="editable" viewBox="0 0 256 256">
    <path fill="currentColor" d="M174.1,101.3l-50.5-50.5l22.3-22.3 c7.4-7.4,19.4-7.4,26.8,0l23.7,23.7l0,0c7.4,7.4,7.4,19.4,0,26.8L174.1,101.3z M89.9,152.3l10.5-10.5c4.5-4.5,10.5-7,16.8-7 c6.2,0,12.1,2.4,16.5,6.7l31.3-31.3l-50.5-50.5L5.1,169.3l-5.1,45c-0.1,0.7-0.1,1.4,0,2c0.6,5.2,5.3,8.9,10.5,8.3l45-4.9l34.1-34.1 C80.7,176.4,80.7,161.5,89.9,152.3z M251.4,121l-10.5-10.5c-3-3-6.9-4.6-11-4.6c-4.2,0-8.1,1.6-11,4.6L155,174.3l-26.7-26.7 c-3-3-6.9-4.6-11-4.6c-4.2,0-8.1,1.6-11,4.6l-10.5,10.5c-6.1,6.1-6.1,16,0,22.1l48.2,48.2c3,3,6.9,4.6,11,4.6c4.2,0,8.1-1.6,11-4.6 l85.4-85.4C257.5,137,257.5,127.1,251.4,121z"/>
  </symbol>
</svg>
